<svg width="66" height="65" viewBox="0 0 66 65" fill="none" xmlns="http://www.w3.org/2000/svg">
<path d="M40.7213 38.7934C40.7213 39.2718 40.4312 39.7031 39.9841 39.876L33.0725 42.5275C30.6406 43.4609 28.7343 45.4063 27.8401 47.8616L25.212 55.1034C25.193 55.1572 25.1519 55.1954 25.1249 55.2441C25.1028 55.2846 25.0807 55.3237 25.0531 55.361C25.0108 55.4166 24.9691 55.4668 24.9163 55.5119C24.8354 55.5841 24.7465 55.6476 24.6471 55.6913C24.5845 55.7147 24.5214 55.7377 24.4588 55.7465C24.3963 55.7616 24.3337 55.7699 24.2705 55.7699L24.0669 55.7465C24.0037 55.7377 23.9411 55.7147 23.878 55.6913C23.7749 55.6466 23.6842 55.5818 23.602 55.5073C23.5517 55.464 23.5106 55.4148 23.4695 55.3614C23.4456 55.3292 23.4266 55.2961 23.4069 55.2625C23.3738 55.2083 23.3284 55.1636 23.3057 55.1034L20.6776 47.8616C19.7907 45.4063 17.8845 43.4609 15.4532 42.5275L8.54159 39.876C8.09447 39.7031 7.79639 39.2718 7.79639 38.7934C7.79639 38.2912 8.12575 37.8439 8.60415 37.6949L14.927 35.7022C17.6649 34.8393 19.8226 32.7214 20.7481 30.0069L23.3211 22.4051C23.3523 22.3194 23.3916 22.2408 23.4388 22.1703C23.4701 22.1224 23.502 22.0757 23.5486 22.0367C23.6431 21.9348 23.7608 21.8562 23.9019 21.8012C23.9411 21.7856 23.9884 21.7698 24.035 21.7623C24.1061 21.7379 24.184 21.7305 24.2625 21.7305C24.3411 21.7305 24.4195 21.7379 24.4901 21.7623C24.5373 21.7698 24.5845 21.7856 24.6238 21.8012C24.7489 21.8483 24.8587 21.9267 24.9531 22.0132C24.9924 22.052 25.0237 22.0918 25.055 22.1303C25.1175 22.2168 25.1727 22.3028 25.204 22.4051L27.7769 30.0069C28.6951 32.7214 30.8602 34.8393 33.5901 35.7022L39.913 37.6949C40.3993 37.8439 40.7213 38.2912 40.7213 38.7934Z" fill="#FF9D0A"/>
<path d="M58.6528 25.0322C58.6528 25.2941 58.4941 25.5303 58.2494 25.6247L54.4645 27.0771C53.1328 27.5881 52.0891 28.6533 51.5996 29.9978L50.1607 33.9629C50.1502 33.9924 50.1276 34.0133 50.1129 34.0403C50.1005 34.0624 50.089 34.0839 50.0738 34.104C50.0503 34.1342 50.0278 34.1618 49.9988 34.1862C49.9547 34.2267 49.9054 34.2605 49.8512 34.2849C49.8171 34.2979 49.7822 34.3108 49.7481 34.3152C49.7136 34.3237 49.6791 34.3281 49.6451 34.3281L49.5333 34.3152C49.4988 34.3108 49.4648 34.2979 49.4303 34.2849C49.3737 34.2598 49.324 34.2248 49.2794 34.1846C49.2513 34.1606 49.2292 34.1336 49.2062 34.1048C49.1934 34.0868 49.1832 34.0691 49.1722 34.0506C49.1543 34.0207 49.129 33.9962 49.117 33.9629L47.6781 29.9978C47.1924 28.6533 46.1483 27.5881 44.8168 27.0771L41.0325 25.6247C40.7872 25.5303 40.624 25.2941 40.624 25.0322C40.624 24.757 40.8049 24.5128 41.0669 24.4306L44.5291 23.34C46.0281 22.8671 47.2094 21.7073 47.7168 20.2214L49.1253 16.0591C49.1428 16.0115 49.1639 15.9684 49.1897 15.9298C49.2072 15.9041 49.2242 15.8782 49.2499 15.8569C49.3015 15.8011 49.3659 15.7575 49.4431 15.728C49.4648 15.7194 49.4905 15.7108 49.5163 15.706C49.5549 15.6937 49.5977 15.6895 49.6405 15.6895C49.6837 15.6895 49.7265 15.6937 49.7651 15.706C49.7914 15.7108 49.8171 15.7194 49.8383 15.728C49.9068 15.7537 49.9675 15.7968 50.0191 15.844C50.0407 15.8653 50.0577 15.8869 50.0743 15.9089C50.1092 15.9557 50.1387 16.0028 50.1566 16.0591L51.5651 20.2214C52.0674 21.7073 53.2538 22.8671 54.7483 23.34L58.2107 24.4306C58.4771 24.5128 58.6528 24.757 58.6528 25.0322Z" fill="#2771E9"/>
<path d="M40.508 15.0258C40.508 15.198 40.4031 15.3533 40.2419 15.4158L37.7499 16.3719C36.8728 16.7089 36.1853 17.4104 35.8633 18.2954L34.9157 20.9064C34.9089 20.9259 34.8936 20.9394 34.8838 20.9574C34.8758 20.9715 34.8678 20.9861 34.858 20.9991C34.8427 21.0192 34.8279 21.0376 34.8089 21.0536C34.7795 21.08 34.7476 21.1025 34.712 21.1179C34.6887 21.1265 34.6667 21.1358 34.6439 21.1382C34.6213 21.1438 34.5986 21.1462 34.5759 21.1462L34.5023 21.1382C34.4796 21.1358 34.4575 21.1265 34.4342 21.1179C34.3974 21.102 34.3649 21.0789 34.3348 21.0523C34.3171 21.0364 34.3023 21.0187 34.287 20.9995C34.279 20.9885 34.2717 20.9763 34.2649 20.9634C34.2527 20.9437 34.2361 20.9283 34.2281 20.9064L33.2805 18.2954C32.961 17.4104 32.2734 16.7089 31.3963 16.3719L28.9044 15.4158C28.7431 15.3533 28.6357 15.198 28.6357 15.0258C28.6357 14.8442 28.7547 14.6829 28.9271 14.629L31.2068 13.9107C32.1943 13.5998 32.972 12.8362 33.3063 11.8573L34.2336 9.11623C34.2447 9.08509 34.2594 9.0568 34.2759 9.0309C34.2876 9.01434 34.2987 8.99737 34.3158 8.98325C34.3495 8.94635 34.3925 8.91806 34.4434 8.89842C34.4575 8.8929 34.4741 8.88692 34.4912 8.88384C34.5164 8.87519 34.5452 8.87354 34.5734 8.87354C34.6016 8.87354 34.6299 8.87519 34.655 8.88384C34.6722 8.88692 34.6887 8.8929 34.7035 8.89842C34.7488 8.91517 34.7881 8.94396 34.8218 8.9751C34.8365 8.98872 34.8476 9.00289 34.8586 9.01701C34.8813 9.04815 34.9015 9.07957 34.9126 9.11623L35.8406 11.8573C36.1711 12.8362 36.9519 13.5998 37.9363 13.9107L40.2167 14.629C40.3915 14.6829 40.508 14.8442 40.508 15.0258Z" fill="#03CEA4"/>
</svg>
